# ProBuilder 5.0.3
# https://unity3d.com/unity/features/worldbuilding/probuilder
# 26.07.2021 18:56:59

mtllib ./Ground_Level.mtl
o Ground Level

g Ground
v -4.863022 0.0001 -256.4564
v -4.863022 0.0001 -131.4564
v -129.863 0.0001 -256.4564
v -129.863 0.0001 -131.4564
v -4.863022 0.0001 -6.456406
v -129.863 0.0001 -6.456406
v -254.863 0.0001 -256.4564
v -254.863 0.0001 -131.4564
v -254.863 0.0001 -6.456406

vt 4.863022 -256.4564
vt 4.863022 -131.4564
vt 129.863 -256.4564
vt 129.863 -131.4564
vt 4.863022 -6.456406
vt 129.863 -6.456406
vt 254.863 -256.4564
vt 254.863 -131.4564
vt 254.863 -6.456406

vn 0 1 0

usemtl Ground_5
f 3/3/1 4/4/1 2/2/1 1/1/1
f 4/4/1 6/6/1 5/5/1 2/2/1
f 7/7/1 8/8/1 4/4/1 3/3/1
f 8/8/1 9/9/1 6/6/1 4/4/1

